<?xml version="1.0" encoding="UTF-8" standalone="no"?>
<!DOCTYPE svg PUBLIC "-//W3C//DTD SVG 1.1//EN"
 "http://www.w3.org/Graphics/SVG/1.1/DTD/svg11.dtd">
<!-- Generated by graphviz version 2.43.0 (0)
 -->
<!-- Title: YADRO_Lab Pages: 1 -->
<svg width="688pt" height="604pt"
 viewBox="0.00 0.00 688.00 604.00" xmlns="http://www.w3.org/2000/svg" xmlns:xlink="http://www.w3.org/1999/xlink">
<g id="graph0" class="graph" transform="scale(1 1) rotate(0) translate(4 600)">
<title>YADRO_Lab</title>
<polygon fill="#1a1a2e" stroke="transparent" points="-4,4 -4,-600 684,-600 684,4 -4,4"/>
<g id="clust1" class="cluster">
<title>cluster_external</title>
<polygon fill="#0f3460" stroke="#0f3460" points="8,-358 8,-588 147,-588 147,-358 8,-358"/>
<text text-anchor="middle" x="77.5" y="-572.8" font-family="Helvetica,sans-Serif" font-size="14.00" fill="white">Внешний доступ</text>
</g>
<g id="clust2" class="cluster">
<title>cluster_workstation</title>
<polygon fill="#e94560" stroke="#e94560" points="155,-352 155,-447 415,-447 415,-352 155,-352"/>
<text text-anchor="middle" x="285" y="-431.8" font-family="Helvetica,sans-Serif" font-size="14.00" fill="white">Рабочая станция в тестовой зоне</text>
</g>
<g id="clust3" class="cluster">
<title>cluster_management</title>
<polygon fill="#533483" stroke="#533483" points="27,-229 27,-324 292,-324 292,-229 27,-229"/>
<text text-anchor="middle" x="159.5" y="-308.8" font-family="Helvetica,sans-Serif" font-size="14.00" fill="white">Management&#45;сеть 10.129.40.0/24</text>
</g>
<g id="clust4" class="cluster">
<title>cluster_test_vlan</title>
<polygon fill="#00917c" stroke="#00917c" points="202,-8 202,-191 672,-191 672,-8 202,-8"/>
<text text-anchor="middle" x="437" y="-175.8" font-family="Helvetica,sans-Serif" font-size="14.00" fill="white">Тестовая сеть VLAN 308</text>
<text text-anchor="middle" x="437" y="-160.8" font-family="Helvetica,sans-Serif" font-size="14.00" fill="white">10.129.13.0/24 | GW: .1 | DNS: .56</text>
</g>
<g id="clust5" class="cluster">
<title>cluster_other</title>
<polygon fill="#0d1117" stroke="#888888" stroke-dasharray="5,2" points="368,-53.5 368,-125.5 664,-125.5 664,-53.5 368,-53.5"/>
<text text-anchor="middle" x="516" y="-114.3" font-family="Helvetica,sans-Serif" font-size="9.00" fill="#888888">Чужие серверы (не трогать)</text>
</g>
<g id="clust6" class="cluster">
<title>cluster_legend</title>
<polygon fill="#0d1117" stroke="#000000" stroke-dasharray="5,2" points="339,-512 339,-576 461,-576 461,-512 339,-512"/>
<text text-anchor="middle" x="400" y="-564.8" font-family="Helvetica,sans-Serif" font-size="9.00" fill="white">Легенда</text>
</g>
<!-- skhome01 -->
<g id="node1" class="node">
<title>skhome01</title>
<polygon fill="#0f3460" stroke="white" points="124.5,-557 29.5,-557 29.5,-513 124.5,-513 124.5,-557"/>
<text text-anchor="middle" x="77" y="-544.2" font-family="Helvetica,sans-Serif" font-size="11.00" fill="white">skhome01</text>
<text text-anchor="middle" x="77" y="-532.2" font-family="Helvetica,sans-Serif" font-size="11.00" fill="white">Ubuntu 24.04</text>
<text text-anchor="middle" x="77" y="-520.2" font-family="Helvetica,sans-Serif" font-size="11.00" fill="white">192.168.0.107</text>
</g>
<!-- VPS2 -->
<g id="node2" class="node">
<title>VPS2</title>
<polygon fill="#0f3460" stroke="white" points="111,-410 29,-410 29,-366 111,-366 111,-410"/>
<text text-anchor="middle" x="70" y="-397.2" font-family="Helvetica,sans-Serif" font-size="11.00" fill="white">VPS2</text>
<text text-anchor="middle" x="70" y="-385.2" font-family="Helvetica,sans-Serif" font-size="11.00" fill="white">130.17.1.90</text>
<text text-anchor="middle" x="70" y="-373.2" font-family="Helvetica,sans-Serif" font-size="11.00" fill="white">Jump Host</text>
</g>
<!-- skhome01&#45;&gt;VPS2 -->
<g id="edge1" class="edge">
<title>skhome01&#45;&gt;VPS2</title>
<path fill="none" stroke="#888888" d="M75.98,-512.92C74.81,-488.54 72.86,-448.18 71.51,-420.18"/>
<polygon fill="#888888" stroke="#888888" points="75,-419.93 71.02,-410.11 68.01,-420.27 75,-419.93"/>
<text text-anchor="middle" x="116" y="-487.8" font-family="Helvetica,sans-Serif" font-size="9.00" fill="#ffd700">SSH туннели:</text>
<text text-anchor="middle" x="116" y="-477.8" font-family="Helvetica,sans-Serif" font-size="9.00" fill="#ffd700">:9443→BMC40.50</text>
<text text-anchor="middle" x="116" y="-467.8" font-family="Helvetica,sans-Serif" font-size="9.00" fill="#ffd700">:9444→BMC40.51</text>
<text text-anchor="middle" x="116" y="-457.8" font-family="Helvetica,sans-Serif" font-size="9.00" fill="#ffd700">:3389→RDP .21</text>
</g>
<!-- node21 -->
<g id="node3" class="node">
<title>node21</title>
<polygon fill="#e94560" stroke="white" points="302.5,-416 163.5,-416 163.5,-360 302.5,-360 302.5,-416"/>
<text text-anchor="middle" x="233" y="-403.2" font-family="Helvetica,sans-Serif" font-size="11.00" fill="white">.21 Astra Linux</text>
<text text-anchor="middle" x="233" y="-391.2" font-family="Helvetica,sans-Serif" font-size="11.00" fill="white">10.129.11.21</text>
<text text-anchor="middle" x="233" y="-379.2" font-family="Helvetica,sans-Serif" font-size="11.00" fill="white">VLAN 11 (Cisco815)</text>
<text text-anchor="middle" x="233" y="-367.2" font-family="Helvetica,sans-Serif" font-size="11.00" fill="white">Доступ к BMC: 0.4ms</text>
</g>
<!-- skhome01&#45;&gt;node21 -->
<g id="edge2" class="edge">
<title>skhome01&#45;&gt;node21</title>
<path fill="none" stroke="#ffd700" d="M124.55,-517.29C137.23,-511.46 150.34,-504.06 161,-495 183.65,-475.75 202.26,-447.73 214.89,-425.33"/>
<polygon fill="#ffd700" stroke="#ffd700" points="218.03,-426.88 219.76,-416.43 211.89,-423.52 218.03,-426.88"/>
<text text-anchor="middle" x="220.5" y="-472.8" font-family="Helvetica,sans-Serif" font-size="9.00" fill="#ffd700">RDP :3389</text>
</g>
<!-- bmc50 -->
<g id="node4" class="node">
<title>bmc50</title>
<polygon fill="#533483" stroke="white" points="150.5,-293 35.5,-293 35.5,-237 150.5,-237 150.5,-293"/>
<text text-anchor="middle" x="93" y="-280.2" font-family="Helvetica,sans-Serif" font-size="11.00" fill="white">BMC 40.50</text>
<text text-anchor="middle" x="93" y="-268.2" font-family="Helvetica,sans-Serif" font-size="11.00" fill="white">VEGMAN S320 #1</text>
<text text-anchor="middle" x="93" y="-256.2" font-family="Helvetica,sans-Serif" font-size="11.00" fill="white">❌ RAID сбой</text>
<text text-anchor="middle" x="93" y="-244.2" font-family="Helvetica,sans-Serif" font-size="11.00" fill="white">не грузится</text>
</g>
<!-- VPS2&#45;&gt;bmc50 -->
<g id="edge3" class="edge">
<title>VPS2&#45;&gt;bmc50</title>
<path fill="none" stroke="#888888" stroke-dasharray="5,2" d="M74.01,-365.92C77.29,-348.66 82.01,-323.82 85.92,-303.22"/>
<polygon fill="#888888" stroke="#888888" points="89.4,-303.68 87.83,-293.2 82.52,-302.37 89.4,-303.68"/>
</g>
<!-- bmc51 -->
<g id="node5" class="node">
<title>bmc51</title>
<polygon fill="#533483" stroke="white" points="283.5,-287 168.5,-287 168.5,-243 283.5,-243 283.5,-287"/>
<text text-anchor="middle" x="226" y="-274.2" font-family="Helvetica,sans-Serif" font-size="11.00" fill="white">BMC 40.51</text>
<text text-anchor="middle" x="226" y="-262.2" font-family="Helvetica,sans-Serif" font-size="11.00" fill="white">VEGMAN S320 #2</text>
<text text-anchor="middle" x="226" y="-250.2" font-family="Helvetica,sans-Serif" font-size="11.00" fill="white">✅ Online</text>
</g>
<!-- VPS2&#45;&gt;bmc51 -->
<g id="edge4" class="edge">
<title>VPS2&#45;&gt;bmc51</title>
<path fill="none" stroke="#888888" stroke-dasharray="5,2" d="M101.43,-365.86C118.72,-353.96 140.38,-338.6 159,-324 170.99,-314.61 183.72,-303.81 194.83,-294.09"/>
<polygon fill="#888888" stroke="#888888" points="197.41,-296.48 202.6,-287.25 192.78,-291.23 197.41,-296.48"/>
</g>
<!-- node21&#45;&gt;bmc50 -->
<g id="edge7" class="edge">
<title>node21&#45;&gt;bmc50</title>
<path fill="none" stroke="#00ff00" d="M196.35,-359.97C188.84,-354.18 181.08,-347.99 174,-342 158.48,-328.86 142,-313.64 127.98,-300.3"/>
<polygon fill="#00ff00" stroke="#00ff00" points="130.11,-297.49 120.47,-293.1 125.27,-302.55 130.11,-297.49"/>
<text text-anchor="middle" x="200" y="-334.8" font-family="Helvetica,sans-Serif" font-size="9.00" fill="#00ff00">ping 0.4ms</text>
</g>
<!-- node21&#45;&gt;bmc51 -->
<g id="edge8" class="edge">
<title>node21&#45;&gt;bmc51</title>
<path fill="none" stroke="#00ff00" d="M232.22,-359.85C231.91,-350.97 231.51,-341.06 231,-332 230.36,-320.61 229.47,-308.13 228.61,-297.12"/>
<polygon fill="#00ff00" stroke="#00ff00" points="232.09,-296.78 227.81,-287.09 225.12,-297.34 232.09,-296.78"/>
<text text-anchor="middle" x="258" y="-334.8" font-family="Helvetica,sans-Serif" font-size="9.00" fill="#00ff00">ping 0.4ms</text>
</g>
<!-- yadro51 -->
<g id="node6" class="node">
<title>yadro51</title>
<polygon fill="#00917c" stroke="white" points="358.5,-145 209.5,-145 209.5,-16 358.5,-16 358.5,-145"/>
<text text-anchor="middle" x="284" y="-133" font-family="Helvetica,sans-Serif" font-size="10.00" fill="white">40.51 data</text>
<text text-anchor="middle" x="284" y="-122" font-family="Helvetica,sans-Serif" font-size="10.00" fill="white">10.129.13.78</text>
<text text-anchor="middle" x="284" y="-111" font-family="Helvetica,sans-Serif" font-size="10.00" fill="white">ens1f0.308 VLAN308</text>
<text text-anchor="middle" x="284" y="-100" font-family="Helvetica,sans-Serif" font-size="10.00" fill="white">Trunk&#45;порт</text>
<text text-anchor="middle" x="284" y="-89" font-family="Helvetica,sans-Serif" font-size="10.00" fill="white">━━━━━━━━━━━━━━</text>
<text text-anchor="middle" x="284" y="-78" font-family="Helvetica,sans-Serif" font-size="10.00" fill="white">Astra Linux 1.8</text>
<text text-anchor="middle" x="284" y="-67" font-family="Helvetica,sans-Serif" font-size="10.00" fill="white">2× Xeon 6258R (56C/112T)</text>
<text text-anchor="middle" x="284" y="-56" font-family="Helvetica,sans-Serif" font-size="10.00" fill="white">754 GB RAM</text>
<text text-anchor="middle" x="284" y="-45" font-family="Helvetica,sans-Serif" font-size="10.00" fill="white">2× Quadro RTX 8000</text>
<text text-anchor="middle" x="284" y="-34" font-family="Helvetica,sans-Serif" font-size="10.00" fill="white">480GB SSD + 12×SAS</text>
<text text-anchor="middle" x="284" y="-23" font-family="Helvetica,sans-Serif" font-size="10.00" fill="white">SSH: root/root</text>
</g>
<!-- node21&#45;&gt;yadro51 -->
<g id="edge9" class="edge">
<title>node21&#45;&gt;yadro51</title>
<path fill="none" stroke="#00ff00" d="M273.8,-359.7C284.08,-349.97 293.05,-337.92 296,-324 307.85,-268.18 303.81,-203.59 297.37,-155.11"/>
<polygon fill="#00ff00" stroke="#00ff00" points="300.81,-154.44 295.97,-145.01 293.88,-155.4 300.81,-154.44"/>
<text text-anchor="middle" x="330" y="-267.8" font-family="Helvetica,sans-Serif" font-size="9.00" fill="#00ff00">SSH</text>
<text text-anchor="middle" x="330" y="-257.8" font-family="Helvetica,sans-Serif" font-size="9.00" fill="#00ff00">через VLAN</text>
</g>
<!-- bmc50&#45;&gt;node21 -->
<!-- bmc51&#45;&gt;node21 -->
<!-- bmc51&#45;&gt;yadro51 -->
<g id="edge10" class="edge">
<title>bmc51&#45;&gt;yadro51</title>
<path fill="none" stroke="#533483" stroke-dasharray="5,2" d="M232.77,-242.71C239.62,-221.15 250.61,-186.57 260.65,-154.96"/>
<polygon fill="#533483" stroke="#533483" points="264.04,-155.85 263.74,-145.26 257.37,-153.73 264.04,-155.85"/>
<text text-anchor="middle" x="264.5" y="-211.8" font-family="Helvetica,sans-Serif" font-size="9.00" fill="#533483">BMC</text>
<text text-anchor="middle" x="264.5" y="-201.8" font-family="Helvetica,sans-Serif" font-size="9.00" fill="#533483">Console</text>
</g>
<!-- other1 -->
<g id="node7" class="node">
<title>other1</title>
<polygon fill="#30363d" stroke="white" points="656,-99.5 558,-99.5 558,-61.5 656,-61.5 656,-99.5"/>
<text text-anchor="middle" x="607" y="-88.3" font-family="Helvetica,sans-Serif" font-size="9.00" fill="#8b949e">.56 bootsman&#45;dlp</text>
<text text-anchor="middle" x="607" y="-78.3" font-family="Helvetica,sans-Serif" font-size="9.00" fill="#8b949e">.58 bootsman&#45;rdp</text>
<text text-anchor="middle" x="607" y="-68.3" font-family="Helvetica,sans-Serif" font-size="9.00" fill="#8b949e">RED OS 8.0.2</text>
</g>
<!-- other2 -->
<g id="node8" class="node">
<title>other2</title>
<polygon fill="#30363d" stroke="white" points="540,-98.5 478,-98.5 478,-62.5 540,-62.5 540,-98.5"/>
<text text-anchor="middle" x="509" y="-83.3" font-family="Helvetica,sans-Serif" font-size="9.00" fill="#8b949e">.57 GitFlic</text>
<text text-anchor="middle" x="509" y="-73.3" font-family="Helvetica,sans-Serif" font-size="9.00" fill="#8b949e">Nginx</text>
</g>
<!-- other3 -->
<g id="node9" class="node">
<title>other3</title>
<polygon fill="#30363d" stroke="white" points="460,-99.5 376,-99.5 376,-61.5 460,-61.5 460,-99.5"/>
<text text-anchor="middle" x="418" y="-88.3" font-family="Helvetica,sans-Serif" font-size="9.00" fill="#8b949e">.223/.224 zvirt</text>
<text text-anchor="middle" x="418" y="-78.3" font-family="Helvetica,sans-Serif" font-size="9.00" fill="#8b949e">CentOS 8</text>
<text text-anchor="middle" x="418" y="-68.3" font-family="Helvetica,sans-Serif" font-size="9.00" fill="#8b949e">1TB RAM</text>
</g>
<!-- legend1 -->
<g id="node10" class="node">
<title>legend1</title>
<polygon fill="white" stroke="transparent" points="453,-550 347,-550 347,-520 453,-520 453,-550"/>
<text text-anchor="middle" x="400" y="-542.8" font-family="Helvetica,sans-Serif" font-size="9.00" fill="white">🟢 Работает</text>
<text text-anchor="middle" x="400" y="-532.8" font-family="Helvetica,sans-Serif" font-size="9.00" fill="white">🟡 Требует настройки</text>
<text text-anchor="middle" x="400" y="-522.8" font-family="Helvetica,sans-Serif" font-size="9.00" fill="white">🔴 Не работает</text>
</g>
</g>
</svg>
